<svg xmlns="http://www.w3.org/2000/svg" viewBox="0 0 220.91 148.15"><defs><style>.bcd8c923-eccf-4d84-b629-76a0de89b87d{fill:#c00;}</style></defs><title>logo-CNN</title><g id="a4141f14-9ec6-4ebe-8ee1-fadae8769880" data-name="Layer 3"><path class="bcd8c923-eccf-4d84-b629-76a0de89b87d" d="M66.87,76.75A21.57,21.57,0,0,1,88.44,55.18h16.37V43H88.31a33.8,33.8,0,1,0,0,67.59h31.77a3.42,3.42,0,0,0,3.21-3.2V44.76a7.35,7.35,0,0,1,5.38-7.24c2.75-.75,6.6,0,9.18,4.38l19.82,34.17,19.17,33.05c1,1.7,2.37,2.5,3.67,2.14a2.48,2.48,0,0,0,1.79-2.52v-64a7.34,7.34,0,0,1,5.36-7.24c2.73-.75,6.56,0,9.14,4.38.11.19,7,12.1,18.37,31.67,10,17.31,20.42,35.22,20.62,35.55,1,1.7,2.37,2.5,3.67,2.14a2.47,2.47,0,0,0,1.78-2.51V25.85H229V75.2S208.53,40,207.59,38.35c-13-22.07-37.54-13-37.54,6V75.2S149.58,40,148.64,38.35c-13-22.07-37.54-13-37.54,6V94.88a3.37,3.37,0,0,1-3.39,3.44H88.44A21.57,21.57,0,0,1,66.87,76.75Z" transform="translate(-37.42 -25.46)"/><path class="bcd8c923-eccf-4d84-b629-76a0de89b87d" d="M246.13,25.85v82.9a7.32,7.32,0,0,1-7.29,7.49c-2.44,0-5.24-1.21-7.27-4.64-.1-.19-8.24-14.21-20.63-35.58L192.58,44.38c-1-1.69-2.35-2.5-3.63-2.15a2.48,2.48,0,0,0-1.77,2.53v64A7.35,7.35,0,0,1,181.8,116c-2.75.75-6.6,0-9.17-4.38-.11-.18-7.67-13.21-19.19-33.08L133.63,44.38c-1-1.7-2.37-2.5-3.67-2.15a2.5,2.5,0,0,0-1.78,2.53v62.59a8.29,8.29,0,0,1-8.1,8.08H88.31a38.68,38.68,0,0,1,0-77.36h16.5V25.85H88.32a50.9,50.9,0,0,0,0,101.8h32.09c12.19,0,20-7.13,20-20.32v-29s20.46,35.26,21.41,36.85c13,22.07,37.54,12.95,37.54-6.05V78.3s20.46,35.26,21.4,36.85c13,22.07,37.55,12.95,37.55-6.05V25.85Z" transform="translate(-37.42 -25.46)"/><path class="bcd8c923-eccf-4d84-b629-76a0de89b87d" d="M95.52,143.88a7,7,0,0,1,2.53,5.8,7.32,7.32,0,0,1-1.09,4,7.4,7.4,0,0,1-3,2.66v0a7.24,7.24,0,0,1,5.53,7.55,8.23,8.23,0,0,1-1.44,4.9,9,9,0,0,1-3.9,3.08,14.2,14.2,0,0,1-5.56,1H73.8V141.88H88.06C91.35,141.88,93.83,142.54,95.52,143.88Zm-15,3.31v7h6.76a4.57,4.57,0,0,0,3-.89,3.26,3.26,0,0,0,1-2.64,3.21,3.21,0,0,0-1-2.59,4.57,4.57,0,0,0-3-.9Zm0,12.34v8.11h7.72a4.71,4.71,0,0,0,3.35-1.06,4.49,4.49,0,0,0,0-6,4.71,4.71,0,0,0-3.35-1.07Z" transform="translate(-37.42 -25.46)"/><path class="bcd8c923-eccf-4d84-b629-76a0de89b87d" d="M131,171a8.45,8.45,0,0,0,.59,1.92h-6.89a21.61,21.61,0,0,1-.79-4l-.52-4a4.5,4.5,0,0,0-1.31-2.94,5.08,5.08,0,0,0-3.31-.89H112V173h-6.85V141.88H119.4c3.72,0,6.48.76,8.26,2.28a8.06,8.06,0,0,1,2.69,6.48,9,9,0,0,1-1.18,4.71,7.31,7.31,0,0,1-3.53,3,5.93,5.93,0,0,1,3,2.14A8.48,8.48,0,0,1,130,164.2l.52,3.84C130.69,169.34,130.85,170.35,131,171Zm-7.48-19.53q0-4.32-5.06-4.32H112v8.64h6.45Q123.5,155.83,123.5,151.51Z" transform="translate(-37.42 -25.46)"/><path class="bcd8c923-eccf-4d84-b629-76a0de89b87d" d="M156.89,166h-11.6l-2.18,7h-7.33l10.3-31.08H156L166.53,173h-7.37Zm-6-19.19-4.1,13.87h8.72l-4.31-13.87Z" transform="translate(-37.42 -25.46)"/><path class="bcd8c923-eccf-4d84-b629-76a0de89b87d" d="M188.08,142.09a9.82,9.82,0,0,1,4.23,3.16,8,8,0,0,1,1.54,4.91H187a3.7,3.7,0,0,0-1.55-2.72,6.44,6.44,0,0,0-3.77-.94,6.27,6.27,0,0,0-3.79,1,3.15,3.15,0,0,0-1.4,2.64,2.86,2.86,0,0,0,.76,2.09,3.86,3.86,0,0,0,2.07,1.05l7.94,1.7q7.68,1.65,7.67,8.72a9.11,9.11,0,0,1-1.5,5.23,9.83,9.83,0,0,1-4.27,3.45,16,16,0,0,1-6.48,1.22q-6,0-9.59-2.6a8.42,8.42,0,0,1-3.58-7.21v-.35h6.85v.26a3.83,3.83,0,0,0,1.55,3.18,7.28,7.28,0,0,0,4.6,1.22,7.09,7.09,0,0,0,4.27-1,3.28,3.28,0,0,0,1.39-2.75,3.1,3.1,0,0,0-1-2.4,7.48,7.48,0,0,0-3.32-1.39l-6.71-1.44q-7.45-1.57-7.46-8.5a8.55,8.55,0,0,1,1.62-5.24,9.74,9.74,0,0,1,4.4-3.27A17.27,17.27,0,0,1,182,141,16,16,0,0,1,188.08,142.09Z" transform="translate(-37.42 -25.46)"/><path class="bcd8c923-eccf-4d84-b629-76a0de89b87d" d="M208.23,173H201.3V141.88h6.93Z" transform="translate(-37.42 -25.46)"/><path class="bcd8c923-eccf-4d84-b629-76a0de89b87d" d="M223.18,167.3h14.65V173H216.24V141.88h6.94Z" transform="translate(-37.42 -25.46)"/></g></svg>